<?xml version="1.0" encoding="UTF-8" standalone="no"?>
<svg
   xmlns:dc="http://purl.org/dc/elements/1.1/"
   xmlns:cc="http://creativecommons.org/ns#"
   xmlns:rdf="http://www.w3.org/1999/02/22-rdf-syntax-ns#"
   xmlns:svg="http://www.w3.org/2000/svg"
   xmlns="http://www.w3.org/2000/svg"
   viewBox="0 0 500 197.91587"
   height="197.91586"
   width="500"
   version="1.1"
   id="svg3336">
  <metadata
     id="metadata3342">
    <rdf:RDF>
      <cc:Work
         rdf:about="">
        <dc:format>image/svg+xml</dc:format>
        <dc:type
           rdf:resource="http://purl.org/dc/dcmitype/StillImage" />
        <dc:title></dc:title>
      </cc:Work>
    </rdf:RDF>
  </metadata>
  <defs
     id="defs3340" />
  <path
     id="path3348"
     d="m 380.02342,194.3275 c -4.91855,-2.45101 -12.14949,-8.70318 -22.21852,-19.21102 l -14.92697,-15.57751 0,13.54895 0,13.54894 -3.5388,0 -3.53881,0 0,-26.89493 0,-26.89492 3.53881,0 3.5388,0 0,10.2271 0,10.22711 10.29584,-10.22711 10.29582,-10.2271 4.88979,0 4.88978,0 -11.87885,11.94089 -11.87887,11.94088 10.22599,11.34348 c 18.44474,20.46036 24.87711,24.79975 36.59648,24.68867 7.73397,-0.0734 9.3726,1.2306 4.6935,3.73479 -4.70518,2.51813 -13.37801,1.62199 -20.98399,-2.16822 z m 103.31291,-2.00486 c -3.32649,-1.50983 -10.49258,-7.09372 -15.92463,-12.40864 l -9.87644,-9.66345 0,8.19315 0,8.19316 -3.53881,0 -3.5388,0 0,-19.10955 0,-19.10956 3.5388,0 3.53881,0 0,6.67052 0,6.67052 6.77236,-6.67052 c 4.97094,-4.8962 7.8772,-6.67052 10.92598,-6.67052 l 4.15363,0 -8.29863,8.38614 -8.29863,8.38613 4.36194,5.5074 c 10.63118,13.42297 23.08165,21.58975 30.11149,19.7514 3.32481,-0.86944 3.7728,2.56549 0.49847,3.82197 -3.85046,1.47756 -8.16038,0.89551 -14.42554,-1.94815 z M 57.633271,186.60956 c -1.170535,-1.89397 15.113806,-39.60733 17.10214,-39.60733 1.757705,0 19.141658,39.03169 17.925566,40.24778 -2.182272,2.18227 -5.845916,0.42876 -7.19603,-3.44419 l -1.480365,-4.24657 -9.102795,0 -9.102806,0 -1.758985,4.24657 c -1.756131,4.23967 -4.700441,5.5322 -6.386725,2.80374 z m 20.347854,-19.92748 -3.222103,-7.48997 -3.068411,6.99865 -3.068412,6.99864 5.838159,0.73828 c 3.210982,0.40605 6.04171,0.62714 6.290503,0.49132 0.248792,-0.13589 -0.997581,-3.61743 -2.769736,-7.73692 z m -76.2441203,-6.78357 0,-27.0515 13.2362343,0 c 14.488926,0 20.465749,1.44483 27.461522,6.63851 6.192707,4.59748 9.225141,10.93764 9.349605,19.54797 0.142889,9.88491 -3.973371,17.3211 -12.528914,22.63404 l -6.81419,4.23157 -15.352123,0.52548 -15.3521343,0.52546 0,-27.05153 z m 32.7088303,17.35254 c 10.32122,-6.02791 13.89187,-17.43681 8.565508,-27.36839 -3.790498,-7.06778 -11.459323,-10.54051 -24.641949,-11.1588 l -10.9702992,-0.51453 0,21.56459 0,21.5646 11.1269242,-0.64412 c 7.589862,-0.43938 12.650491,-1.53397 15.919816,-3.44335 z m 69.208795,-9.72374 0,-19.10956 2.83104,0 2.83105,0 0,16.27851 0,16.27851 9.20089,0 9.2009,0 0,2.83105 0,2.83104 -12.03194,0 -12.03194,0 0,-19.10955 z m 33.97254,-2.12329 0,-21.23283 4.60045,0.0311 c 4.2241,0.0285 8.96511,1.91921 20.08094,8.00807 2.28596,1.25217 6.90411,2.5864 10.26254,2.96494 l 6.10622,0.6882 0,15.38666 0,15.38666 -2.83104,0 -2.83105,0 0,-12.56752 0,-12.56752 -5.66209,-1.43719 -5.66209,-1.4372 0,14.00472 0,14.00471 -3.53881,0 -3.5388,0 0,-16.24216 0,-16.24216 -4.17628,-2.15963 c -2.29695,-1.18779 -4.84489,-2.15963 -5.66209,-2.15963 -0.96121,0 -1.48581,6.49721 -1.48581,18.40179 l 0,18.40179 -2.83105,0 -2.83104,0 0,-21.23284 z m 56.6209,2.12329 0,-19.10956 11.42796,0 11.42798,0 -0.47092,2.47717 c -0.36398,1.91452 -2.15585,2.57434 -7.88918,2.90501 l -7.41823,0.42786 0,4.35352 0,4.3535 5.49681,-0.87898 c 3.80681,-0.60874 5.98822,-0.28688 7.09507,1.04679 2.38369,2.87219 -1.94739,5.83262 -7.79591,5.32874 l -4.79597,-0.41321 0,6.40768 0,6.40766 8.1255,0.42452 c 6.40958,0.33488 8.22504,0.94764 8.59693,2.90169 l 0.47142,2.47716 -12.13573,0 -12.13573,0 0,-19.10955 z m 35.38806,0 0,-19.10956 3.62235,0 c 2.05443,0 3.24367,0.6127 2.7475,1.41553 -1.1459,1.85412 0.94371,1.7312 12.03194,-0.70777 5.0605,-1.11311 9.90573,-2.04621 10.7672,-2.07355 0.9696,-0.0307 1.92783,4.93843 2.51529,13.04385 0.52193,7.20147 1.33981,16.17529 1.8175,19.94183 l 0.86852,6.84824 -3.38381,-0.47839 -3.3838,-0.47839 -1.25381,-15.92463 -1.25382,-15.92463 -2.99275,0.11395 c -1.64601,0.0627 -5.79114,0.85888 -9.21141,1.7694 l -6.21862,1.65548 0.28347,14.50911 0.28347,14.5091 -3.61961,0 -3.61961,0 0,-19.10955 z m 55.20538,11.57622 0,-7.53332 -7.07761,-10.27395 c -3.89269,-5.65067 -7.07762,-10.79181 -7.07762,-11.42478 0,-1.73364 4.60743,-3.15008 5.54892,-1.70589 0.45151,0.69258 3.30847,4.84435 6.34879,9.22613 l 5.52785,7.96689 3.40114,-4.57774 c 1.87063,-2.51776 4.69018,-6.64795 6.26566,-9.17819 3.06427,-4.92123 3.68968,-5.23324 6.68548,-3.33521 1.50651,0.95447 0.29427,3.64382 -5.53918,12.28862 l -7.46776,11.06674 0.30371,7.50702 0.30371,7.50701 -3.61154,0 -3.61155,0 0,-7.53333 z m 100.5021,-11.57622 0,-19.10956 3.53881,0 3.5388,0 0,19.10956 0,19.10955 -3.5388,0 -3.53881,0 0,-19.10955 z m 22.64836,0 0,-19.10956 9.26523,0 9.26525,0 3.47445,3.47448 c 4.6891,4.68907 4.54427,10.64043 -0.37872,15.56341 l -3.85318,3.85317 7.97527,7.66403 7.97528,7.66402 -4.43491,0 c -3.48988,0 -6.14815,-1.69534 -12.47463,-7.95581 -4.46144,-4.41488 -8.7323,-7.52777 -9.59583,-6.99408 -0.85586,0.52896 -1.55612,4.10908 -1.55612,7.95582 l 0,6.99407 -2.83104,0 -2.83105,0 0,-19.10955 z m 18.04791,-4.64948 c 3.75903,-4.8044 0.6259,-8.94097 -7.03858,-9.29279 l -4.63948,-0.21296 -0.45362,4.73521 c -0.71584,7.47249 0.44753,9.08505 5.76065,7.98485 2.5309,-0.52407 5.39785,-1.97051 6.37103,-3.21431 z m -40.51794,-22.03059 c -1.20444,-1.45125 -0.95547,-2.47709 1.03923,-4.28228 l 2.62309,-2.37385 1.77683,2.14097 c 2.10186,2.53257 0.97462,6.42358 -1.86092,6.42358 -1.09692,0 -2.70711,-0.85878 -3.57823,-1.90842 z M 158.57969,117.93962 c -0.28213,-0.28214 -36.07798,-0.63468 -79.546334,-0.78345 L 0,116.88569 0.83607555,108.94171 C 1.2959165,104.57253 2.3414554,90.168994 3.1595029,76.933858 5.4244748,40.289111 5.597112,38.542981 7.2628083,35.430598 8.1163004,33.835829 8.8513303,29.781952 8.8961967,26.421985 8.9410405,23.062021 9.4187963,17.844383 9.9578386,14.82724 L 10.937901,9.341522 24.377472,4.67076 37.817032,0 55.421206,4.825268 c 9.682299,2.653897 18.116152,5.63185 18.741903,6.617672 0.625741,0.985823 1.147468,5.455069 1.159393,9.931659 0.01189,4.47659 0.499419,8.141005 1.083316,8.143145 5.058806,0.01855 59.655632,-12.286523 61.521962,-13.865852 l 2.42389,-2.051158 3.04949,5.168481 c 2.04927,3.473255 3.8078,4.94308 5.36147,4.481268 1.2716,-0.377966 9.84812,-2.071957 19.0589,-3.764424 10.55308,-1.939108 17.02233,-3.794955 17.4916,-5.017844 1.47031,-3.831565 4.16471,-1.805868 8.00031,6.014781 l 3.9017,7.955415 5.34218,-0.85425 5.34217,-0.85425 18.58846,15.895545 c 11.79351,10.084992 18.09485,16.389134 17.23817,17.245824 -0.76526,0.765247 -1.35029,13.425339 -1.35029,29.220089 l 0,27.869811 -4.72127,0.88573 c -4.88517,0.91646 -78.16521,1.00238 -79.07487,0.0928 z m 75.25948,-1.82992 6.32632,-0.95673 0.0435,-28.678767 0.0435,-28.678764 -2.38812,-0.76046 c -3.67512,-1.170273 -37.33165,-1.129052 -49.63233,0.06078 l -10.97021,1.061156 0,11.643397 c 0,6.403868 0.41478,19.357276 0.92172,28.785351 l 0.92172,17.141957 7.21753,0.51248 c 13.00602,0.92346 41.05668,0.84648 47.5164,-0.1304 z M 192.39019,88.051609 c -0.53525,-0.535246 -0.97317,-4.370426 -0.97317,-8.522627 l 0,-7.549453 2.47717,0.111759 c 1.47984,0.06676 1.76478,0.399202 0.70776,0.825723 -1.0788,0.435302 -1.7694,3.430366 -1.7694,7.673621 0,7.417173 2.26568,9.570354 3.22721,3.066966 l 0.57552,-3.892687 -0.13192,4.137555 c -0.12881,4.040703 -2.16629,6.095972 -4.11313,4.14915 z m -76.32357,-5.960221 0.38005,-32.827293 -3.2111,0.690114 c -1.76609,0.379564 -13.880587,2.076668 -26.921094,3.771344 l -23.710003,3.081232 0,28.786548 0,28.786537 25.125525,0.40458 c 13.819042,0.22251 25.762512,0.34376 26.541052,0.2694 0.88706,-0.0847 1.5574,-12.39041 1.79557,-32.962462 z M 67.121406,75.420902 c 0.257897,-3.985139 1.197804,-7.009347 2.290315,-7.369208 1.391448,-0.458325 1.743981,1.072965 1.415523,6.148552 -0.257897,3.98514 -1.197804,7.009347 -2.290316,7.369207 -1.391447,0.458327 -1.74398,-1.072964 -1.415522,-6.148551 z m 2.144143,-3.795253 c -0.337393,-1.751709 -0.613443,-0.318493 -0.613443,3.184925 0,3.503419 0.27605,4.936635 0.613443,3.184926 0.337392,-1.751709 0.337392,-4.618142 0,-6.369851 z m 23.320043,0.707761 c -0.198287,-5.775487 0.218001,-7.431493 1.868138,-7.431493 1.645981,0 2.073299,1.670565 1.9009,7.431493 l -0.222384,7.431493 -0.924473,-7.077612 -0.924483,-7.077613 -0.721271,7.077613 -0.721282,7.077612 -0.255145,-7.431493 z m 78.406798,13.447464 c -1.01007,-30.555072 -2.3689,-38.391757 -6.45642,-37.235773 -1.17544,0.332425 -11.05495,1.69743 -21.95447,3.033346 -10.89953,1.335914 -20.37451,2.921311 -21.05553,3.523103 -0.69535,0.614457 -0.78343,13.829664 -0.20089,30.142582 l 1.03733,29.048418 5.15521,0.54613 c 2.83537,0.30039 14.00084,0.65323 24.81217,0.7841 l 19.65697,0.23795 -0.99437,-30.079856 z m -31.9497,-3.858267 c 0,-0.889362 0.63698,-1.223345 1.41552,-0.742181 0.86461,0.534363 1.41552,-1.636743 1.41552,-5.578551 0,-6.667602 -2.19563,-8.891106 -3.22749,-3.268465 l -0.5845,3.184926 0.13661,-3.538807 c 0.0827,-2.141216 0.97515,-3.538806 2.25987,-3.538806 2.73757,0 3.06939,13.603941 0.35388,14.509106 -0.97316,0.324391 -1.7694,-0.137857 -1.7694,-1.027222 z m 36.76873,5.71301 c -0.40844,-15.526268 -1.20468,-28.691634 -1.7694,-29.256366 -0.56474,-0.564734 -1.02679,12.137572 -1.02679,28.227344 0,22.458435 0.41102,29.254665 1.7694,29.256375 1.38124,0.001 1.6065,-6.19064 1.02679,-28.227353 z M 10.713173,102.76714 c 1.715205,-22.960919 2.420849,-64.133701 1.049253,-61.221345 l -1.333309,2.831045 -0.09954,-2.477164 C 10.164765,37.796084 7.4013823,39.117406 7.3691876,43.315198 7.3527676,45.456176 6.4069607,60.584573 5.2673858,76.933858 4.1278222,93.283143 3.185775,108.41154 3.1739639,110.55252 l -0.021516,3.89268 3.3441437,0 3.3441437,0 0.8723577,-11.67806 z M 7.6226001,87.550277 c 0,-1.946343 0.3212897,-2.742575 0.7139669,-1.769403 0.3926886,0.973172 0.3926886,2.565634 0,3.538806 -0.3926772,0.973172 -0.7139669,0.176941 -0.7139669,-1.769403 z M 8.9263643,65.491718 C 8.9943094,63.842715 9.329709,63.507297 9.7815777,64.636506 10.190483,65.658337 10.140192,66.879225 9.6698081,67.349592 9.1994469,67.819957 8.8648854,66.983914 8.926353,65.491718 Z m 14.6016467,21.033191 0.993437,-27.920297 2.353459,-2.600545 c 1.29441,-1.430301 3.433435,-2.318128 4.753404,-1.972949 l 2.399945,0.6276 0.964899,-17.172881 c 0.530696,-9.445084 0.74974,-19.764042 0.486759,-22.931017 l -0.47813,-5.758139 -11.678061,3.49324 -11.678061,3.493241 0,6.865346 c 0,7.238023 1.781702,8.768902 5.107138,4.388181 2.333743,-3.074312 2.559457,-6.547063 0.336249,-5.173038 -1.012529,0.625773 -1.249997,0.3883 -0.624223,-0.624223 2.122287,-3.433947 4.023515,-1.612778 3.096586,2.966216 -0.937575,4.631628 -5.059033,73.020536 -5.075736,84.223586 l -0.0091,6.01597 4.028939,0 4.028928,0 0.993437,-27.920291 z M 20.49577,74.102813 c 0.01574,-3.11415 0.305594,-4.221446 0.644176,-2.460661 0.338581,1.760787 0.325728,4.308728 -0.02854,5.662091 -0.3543,1.353364 -0.631323,-0.08728 -0.615617,-3.20143 z m 1.05855,-50.958811 c 0,-6.440214 2.017108,-6.437903 2.476315,0.0028 0.194165,2.723327 -0.283569,4.951498 -1.061642,4.951498 -0.778073,0 -1.414673,-2.229448 -1.414673,-4.954329 z m 6.115046,-1.386866 c 0.140148,-2.733659 0.73255,-4.973147 1.316447,-4.976638 1.536012,-0.0092 1.307887,8.16752 -0.254805,9.133319 -0.732074,0.452445 -1.203341,-1.392719 -1.061642,-4.156681 z m 11.386588,86.120654 c 1.23591,-9.017021 1.133686,-24.574081 -0.161483,-24.574081 -0.583897,0 -1.061642,-2.866433 -1.061642,-6.369851 0,-3.503418 0.477745,-6.369851 1.061642,-6.369851 0.583909,0 1.061642,-2.316031 1.061642,-5.146733 l 0,-5.146732 -6.611861,0.906257 c -3.636522,0.498441 -6.734557,1.062762 -6.884524,1.254046 -0.149954,0.191283 -0.638106,11.972767 -1.084765,26.181074 l -0.812103,25.833281 6.796468,0 6.796455,0 0.900171,-6.56741 z m 15.055384,-6.17229 c 0,-7.54945 -0.576695,-12.7397 -1.415522,-12.7397 -0.838828,0 -1.415523,5.19025 -1.415523,12.7397 0,7.54945 0.576695,12.7397 1.415523,12.7397 0.838827,0 1.415522,-5.19025 1.415522,-12.7397 z m 3.811991,7.45844 c -0.358897,-1.37726 -0.676144,-0.59315 -0.704987,1.74246 -0.02888,2.33561 0.264793,3.46245 0.652533,2.5041 0.387752,-0.95835 0.411351,-2.86931 0.05243,-4.24656 z M 128.67854,40.255059 c 5.16816,-7.07547 10.57131,-13.923267 12.00697,-15.217329 2.42562,-2.186362 2.31225,-6.848057 -0.16653,-6.848057 -0.57852,0 -5.92476,6.327193 -11.88049,14.060428 l -10.82864,14.060429 0.3248,34.421218 0.32479,34.421222 0.41122,-31.016712 0.4112,-31.016709 9.39668,-12.86449 z M 48.754299,90.854272 c 0.250151,-3.243294 -0.03465,-5.594396 -0.632875,-5.224669 -0.598233,0.369727 -1.013808,3.97881 -0.923498,8.020184 0.176306,7.889273 0.821683,6.730063 1.556373,-2.795515 z m -1.214371,-7.550563 1.617081,-2.123283 -2.477164,1.942726 c -1.362435,1.068499 -2.403274,3.297947 -2.312964,4.954329 l 0.164201,3.011602 0.695882,-2.831045 c 0.382735,-1.557074 1.423574,-3.786522 2.312964,-4.954329 z m -1.390689,-2.684375 c 3.098035,-2.57114 9.192313,-0.827101 10.764698,3.080604 l 1.264514,3.142578 0.08969,-4.600448 0.08969,-4.600449 -2.831046,0 -2.831045,0 0,-6.920332 0,-6.920333 2.476485,0.196601 c 1.598386,0.126888 2.644027,-0.985541 2.949021,-3.137381 l 0.472558,-3.333984 -7.54948,1.018658 c -4.152215,0.56026 -8.027213,1.301914 -8.611122,1.648118 -0.583897,0.346204 -1.02126,6.802474 -0.97192,14.347267 0.05673,8.669144 0.519395,12.657788 1.257187,10.837617 0.642093,-1.584105 2.185907,-3.725437 3.430695,-4.758516 z m -3.362081,-9.159987 0,-6.227241 2.831045,-0.740335 2.831045,-0.740336 0.2126,5.883451 0.2126,5.88345 0.990323,-6.369852 0.990322,-6.369851 0.2126,7.1304 0.2126,7.130402 -4.246567,0.323577 -4.246568,0.323577 0,-6.227242 z m 3.663938,-4.780859 C 44.90478,65.132172 43.84444,67.591297 44.95464,70.149077 l 1.101696,2.538214 0.613827,-2.587956 c 0.337596,-1.423376 0.239019,-2.962757 -0.219067,-3.420847 z M 46.325964,56.510019 c 5.449762,-0.778554 21.055898,-2.734114 34.680302,-4.345687 27.794684,-3.287719 33.108174,-4.169365 31.972474,-5.305068 -0.43283,-0.432837 0.0547,-1.486945 1.08344,-2.342462 2.07549,-1.726022 19.31842,-22.967385 19.31842,-23.798122 0,-0.288526 -17.43876,3.016411 -38.752794,7.344305 L 55.875,35.931882 45.685639,46.842549 c -9.51683,10.19053 -12.277971,11.950515 -14.347612,9.145349 -0.457984,-0.620754 -1.723121,-0.05577 -2.811398,1.255528 l -1.978685,2.384174 4.934681,-0.851016 c 2.714078,-0.468058 9.393578,-1.488012 14.843339,-2.266565 z m 167.345386,-2.194636 22.96209,-0.02988 -2.43702,-2.212455 c -1.34034,-1.216851 -7.6988,-6.863963 -14.12987,-12.549141 l -11.69287,-10.336688 -9.06807,0.971107 -9.06809,0.97111 -7.19562,12.039852 c -3.95759,6.621919 -7.19562,12.331711 -7.19562,12.688428 0,0.356715 3.34416,0.162345 7.43149,-0.431936 4.08731,-0.594281 17.76443,-1.09396 30.39358,-1.110397 z M 181.43138,42.253556 c 4.04389,-7.006836 8.22588,-12.739703 9.29329,-12.739703 3.40353,0 3.71159,-2.596057 0.9474,-7.984004 l -2.68873,-5.240883 -5.12215,8.007217 c -2.81718,4.40397 -6.7285,10.551836 -8.69182,13.661927 -3.51491,5.567985 -4.39921,10.395267 -2.71045,14.796094 0.47256,1.23148 1.03037,2.239055 1.23957,2.239055 0.20921,0 3.68901,-5.732866 7.73289,-12.739703 z m -134.409545,0.719757 9.107223,-9.188902 8.192037,-1.611684 8.192036,-1.611685 0,-5.477922 c 0,-3.012859 0.03873,-5.93711 0.08618,-6.498336 0.08788,-1.041087 -32.848197,-10.570585 -33.675383,-9.743399 -0.807244,0.807251 -2.532449,43.321388 -1.757943,43.321103 0.411759,-1.51e-4 4.846908,-4.13528 9.855876,-9.189175 z M 59.325183,30.009286 c -0.531998,-0.532 -0.967277,-3.143639 -0.967277,-5.803642 0,-5.895057 3.305335,-5.662552 4.003347,0.281605 0.474653,4.042072 -1.295838,7.262268 -3.03607,5.522037 z m 1.429191,-7.192224 c -0.358897,-1.377259 -0.676144,-0.59315 -0.704987,1.742463 -0.02888,2.335612 0.264794,3.462458 0.652533,2.504104 0.387752,-0.958355 0.411351,-2.86931 0.05243,-4.246567 z m -10.621175,-0.02694 c 0.446173,-5.390846 2.915286,-6.857527 3.700357,-2.198052 l 0.429968,2.551933 -1.591908,-2.123284 c -1.263065,-1.684671 -1.475631,-1.172956 -1.029017,2.477165 0.309592,2.530246 -0.0023,4.600448 -0.692915,4.600448 -0.690696,0 -1.058109,-2.388694 -0.816485,-5.30821 z m 94.571581,26.541048 c 11.19396,-1.557075 20.55069,-2.831045 20.79275,-2.831045 0.24204,0 0.44009,-0.522372 0.44009,-1.160827 0,-0.638455 3.52749,-6.52254 7.83889,-13.075745 4.31139,-6.553203 7.23953,-12.114705 6.50698,-12.358889 -1.95452,-0.651509 -38.79581,6.578121 -39.91781,7.833357 -2.4637,2.756249 -16.89374,22.949643 -16.89374,23.641089 0,0.99905 -2.19269,1.210539 21.23284,-2.04794 z M 14.808914,34.571433 c 1.753243,-2.56045 1.205198,-3.598174 -1.393848,-2.63924 -2.516381,0.928437 -4.5394566,3.123808 -4.5787742,4.968728 -0.029669,1.390188 4.6846322,-0.448501 5.9726222,-2.329487 z M 72.513131,14.038495 c 0,-1.471511 0.422381,-1.326092 -18.877929,-6.499314 C 45.977214,5.48655 39.341957,4.176765 38.890179,4.628547 37.638914,5.879813 38.13087,6.067592 54.819099,10.708511 73.294488,15.84643 72.513131,15.69938 72.513131,14.038495 Z M 35.558266,6.113858 c 1.084607,-0.401789 1.602745,-1.09979 1.15142,-1.551112 -1.128727,-1.128722 -23.648501,6.486357 -23.648501,7.996755 0,0.978997 10.833832,-2.125005 22.497081,-6.445643 z"
     style="fill:#000000" />
</svg>
